<mxfile host="app.diagrams.net" modified="2024-01-27T17:17:52.050Z" agent="Mozilla/5.0 (Macintosh; Intel Mac OS X 10_15_7) AppleWebKit/537.36 (KHTML, like Gecko) Chrome/120.0.0.0 Safari/537.36" etag="2MnHKnXw9quto5YW4__n" version="23.0.2" type="github">
  <diagram name="Page-1" id="cd1_MiwB06w_17axHmNc">
    <mxGraphModel dx="1434" dy="1895" grid="1" gridSize="10" guides="1" tooltips="1" connect="1" arrows="1" fold="1" page="1" pageScale="1" pageWidth="850" pageHeight="1100" math="0" shadow="0">
      <root>
        <mxCell id="0" />
        <mxCell id="1" parent="0" />
        <mxCell id="VcjEkCZbZSx1TWsPLLB7-1" value="Madina Tlenchiyeva&lt;br&gt;tlenchiyevamadina@gmail.com&lt;br&gt;+77473388196" style="rounded=0;whiteSpace=wrap;html=1;" vertex="1" parent="1">
          <mxGeometry x="320" y="380" width="200" height="60" as="geometry" />
        </mxCell>
        <mxCell id="VcjEkCZbZSx1TWsPLLB7-7" value="iPhone 12&lt;br style=&quot;border-color: var(--border-color);&quot;&gt;Pass:1809**" style="rounded=0;whiteSpace=wrap;html=1;" vertex="1" parent="1">
          <mxGeometry x="360" y="240" width="120" height="60" as="geometry" />
        </mxCell>
        <mxCell id="VcjEkCZbZSx1TWsPLLB7-8" value="iCloud&lt;br style=&quot;border-color: var(--border-color);&quot;&gt;Warning:&lt;br style=&quot;border-color: var(--border-color);&quot;&gt;2F Auth:&amp;nbsp;" style="rounded=0;whiteSpace=wrap;html=1;" vertex="1" parent="1">
          <mxGeometry x="545" y="160" width="120" height="60" as="geometry" />
        </mxCell>
        <mxCell id="VcjEkCZbZSx1TWsPLLB7-9" value="Gmail&lt;br&gt;Warning:&lt;br&gt;2F Auth:" style="rounded=0;whiteSpace=wrap;html=1;" vertex="1" parent="1">
          <mxGeometry x="190" y="160" width="120" height="60" as="geometry" />
        </mxCell>
        <mxCell id="VcjEkCZbZSx1TWsPLLB7-16" style="rounded=0;orthogonalLoop=1;jettySize=auto;html=1;exitX=0.5;exitY=0;exitDx=0;exitDy=0;entryX=0.5;entryY=1;entryDx=0;entryDy=0;" edge="1" parent="1" source="VcjEkCZbZSx1TWsPLLB7-10" target="VcjEkCZbZSx1TWsPLLB7-15">
          <mxGeometry relative="1" as="geometry" />
        </mxCell>
        <mxCell id="VcjEkCZbZSx1TWsPLLB7-20" style="rounded=0;orthogonalLoop=1;jettySize=auto;html=1;exitX=0.5;exitY=0;exitDx=0;exitDy=0;entryX=0.5;entryY=1;entryDx=0;entryDy=0;" edge="1" parent="1" source="VcjEkCZbZSx1TWsPLLB7-10" target="VcjEkCZbZSx1TWsPLLB7-19">
          <mxGeometry relative="1" as="geometry" />
        </mxCell>
        <mxCell id="VcjEkCZbZSx1TWsPLLB7-22" style="rounded=0;orthogonalLoop=1;jettySize=auto;html=1;exitX=0.5;exitY=0;exitDx=0;exitDy=0;entryX=0.5;entryY=1;entryDx=0;entryDy=0;" edge="1" parent="1" source="VcjEkCZbZSx1TWsPLLB7-10" target="VcjEkCZbZSx1TWsPLLB7-21">
          <mxGeometry relative="1" as="geometry" />
        </mxCell>
        <mxCell id="VcjEkCZbZSx1TWsPLLB7-10" value="FB ENG (12 friends)&lt;br&gt;Warning: no" style="rounded=0;whiteSpace=wrap;html=1;" vertex="1" parent="1">
          <mxGeometry x="250" y="10" width="120" height="60" as="geometry" />
        </mxCell>
        <mxCell id="VcjEkCZbZSx1TWsPLLB7-11" value="FB RU (20 friends)&lt;br&gt;Warning: no" style="rounded=0;whiteSpace=wrap;html=1;" vertex="1" parent="1">
          <mxGeometry x="420" y="10" width="120" height="60" as="geometry" />
        </mxCell>
        <mxCell id="VcjEkCZbZSx1TWsPLLB7-12" value="Tinder" style="rounded=0;whiteSpace=wrap;html=1;" vertex="1" parent="1">
          <mxGeometry x="600" y="10" width="120" height="60" as="geometry" />
        </mxCell>
        <mxCell id="VcjEkCZbZSx1TWsPLLB7-13" value="Instagram" style="rounded=0;whiteSpace=wrap;html=1;" vertex="1" parent="1">
          <mxGeometry x="90" y="10" width="120" height="60" as="geometry" />
        </mxCell>
        <mxCell id="VcjEkCZbZSx1TWsPLLB7-17" style="rounded=0;orthogonalLoop=1;jettySize=auto;html=1;exitX=0.5;exitY=0;exitDx=0;exitDy=0;entryX=0.5;entryY=1;entryDx=0;entryDy=0;" edge="1" parent="1" source="VcjEkCZbZSx1TWsPLLB7-14" target="VcjEkCZbZSx1TWsPLLB7-15">
          <mxGeometry relative="1" as="geometry" />
        </mxCell>
        <mxCell id="VcjEkCZbZSx1TWsPLLB7-14" value="GetContact" style="rounded=0;whiteSpace=wrap;html=1;" vertex="1" parent="1">
          <mxGeometry x="770" y="10" width="120" height="60" as="geometry" />
        </mxCell>
        <mxCell id="VcjEkCZbZSx1TWsPLLB7-15" value="Zarina Sadykova" style="ellipse;whiteSpace=wrap;html=1;" vertex="1" parent="1">
          <mxGeometry x="510" y="-240" width="120" height="50" as="geometry" />
        </mxCell>
        <mxCell id="VcjEkCZbZSx1TWsPLLB7-18" value="vk.com" style="rounded=0;whiteSpace=wrap;html=1;" vertex="1" parent="1">
          <mxGeometry x="930" y="10" width="120" height="60" as="geometry" />
        </mxCell>
        <mxCell id="VcjEkCZbZSx1TWsPLLB7-19" value="Aiman Duisen" style="ellipse;whiteSpace=wrap;html=1;" vertex="1" parent="1">
          <mxGeometry x="365" y="-240" width="120" height="50" as="geometry" />
        </mxCell>
        <mxCell id="VcjEkCZbZSx1TWsPLLB7-21" value="Shnar Sadykova" style="ellipse;whiteSpace=wrap;html=1;" vertex="1" parent="1">
          <mxGeometry x="220" y="-240" width="120" height="50" as="geometry" />
        </mxCell>
      </root>
    </mxGraphModel>
  </diagram>
</mxfile>
